<?xml version="1.0" standalone="no"?>
<!DOCTYPE svg PUBLIC "-//W3C//DTD SVG 20010904//EN"
 "http://www.w3.org/TR/2001/REC-SVG-20010904/DTD/svg10.dtd">
<svg version="1.0" xmlns="http://www.w3.org/2000/svg"
 width="500.000000pt" height="500.000000pt" viewBox="0 0 500.000000 500.000000"
 preserveAspectRatio="xMidYMid meet">
<metadata>
Created by potrace 1.16, written by Peter Selinger 2001-2019
</metadata>
<g transform="translate(0.000000,500.000000) scale(0.100000,-0.100000)"
fill="#000000" stroke="none">
<path d="M362 3810 c-39 -16 -43 -48 -40 -361 3 -271 5 -300 21 -316 16 -17
51 -18 448 -21 l430 -3 -3 -587 c-3 -572 -4 -588 -24 -632 -35 -74 -69 -107
-128 -124 -67 -20 -129 -20 -200 -2 -83 22 -142 61 -238 160 -66 66 -94 89
-114 89 -32 -1 -89 -54 -197 -188 -44 -55 -88 -107 -98 -115 -9 -8 -51 -57
-93 -108 -95 -117 -97 -136 -28 -215 56 -66 150 -145 211 -178 119 -65 170
-90 216 -105 28 -9 64 -22 80 -29 17 -7 80 -21 140 -31 216 -35 582 -17 700
36 22 9 58 23 79 30 45 14 83 35 176 95 76 50 132 101 189 178 39 51 111 181
111 200 0 4 9 27 20 51 10 24 30 95 42 157 23 114 23 115 23 1046 l0 932 -23
23 -23 23 -827 2 c-484 1 -836 -2 -850 -7z m1645 -982 c-4 -889 -9 -1038 -37
-1073 -4 -5 -13 -35 -20 -65 -7 -30 -18 -64 -25 -75 -6 -11 -20 -41 -30 -68
-10 -26 -21 -47 -24 -47 -4 0 -15 -17 -26 -37 -47 -91 -236 -245 -328 -268
-15 -4 -27 -11 -27 -15 0 -8 -117 -40 -149 -40 -11 0 -21 -4 -23 -9 -4 -12
-187 -31 -298 -31 -111 0 -294 19 -298 31 -2 5 -13 9 -24 9 -26 0 -141 30
-148 38 -3 4 -31 16 -62 26 -32 11 -58 22 -58 26 0 4 -20 15 -45 24 -25 10
-48 23 -52 30 -5 7 -19 19 -33 26 -57 30 -182 158 -169 173 5 7 23 28 40 47
17 19 58 69 91 110 34 41 69 81 79 88 11 7 19 20 19 28 0 8 4 14 9 14 7 0 28
24 122 143 16 20 18 19 98 -59 104 -102 108 -105 161 -129 25 -11 47 -23 50
-27 10 -13 94 -28 163 -28 76 0 155 17 175 37 7 7 17 13 22 13 14 0 80 71 80
86 0 7 5 14 11 16 6 2 17 30 25 63 11 48 14 183 14 678 l0 617 -445 0 -445 0
0 280 0 280 806 0 805 0 -4 -912z"/>
<path d="M2492 3810 c-12 -5 -27 -21 -32 -36 -7 -17 -9 -486 -8 -1345 3 -1250
4 -1319 21 -1336 16 -17 47 -18 412 -18 365 0 396 1 412 18 16 16 18 46 21
337 l3 320 162 0 c191 0 483 16 547 29 82 16 244 63 264 76 12 7 44 21 71 31
28 10 61 25 75 35 132 87 144 96 201 150 92 89 151 170 195 269 9 19 24 53 34
75 73 162 72 576 -1 745 -99 224 -220 369 -389 465 -25 14 -52 29 -60 35 -32
20 -147 68 -190 80 -25 6 -58 17 -75 25 -16 7 -86 21 -155 31 -106 14 -228 17
-805 20 -422 3 -689 0 -703 -6z m1388 -80 c74 -6 137 -15 138 -20 2 -6 15 -10
28 -10 32 0 168 -31 174 -39 3 -4 24 -13 47 -19 43 -13 174 -78 183 -92 3 -4
16 -13 30 -20 27 -14 32 -18 101 -82 55 -51 159 -184 159 -203 0 -8 7 -21 16
-29 8 -9 13 -16 9 -16 -3 0 1 -10 9 -22 7 -13 19 -48 26 -78 7 -30 16 -59 20
-65 13 -16 30 -159 30 -250 0 -91 -17 -234 -30 -250 -4 -5 -14 -36 -21 -69 -7
-32 -18 -64 -24 -70 -7 -6 -18 -29 -26 -49 -7 -21 -21 -46 -31 -57 -10 -11
-18 -22 -18 -26 0 -8 -78 -102 -111 -134 -40 -38 -101 -85 -129 -100 -14 -7
-27 -16 -30 -20 -8 -12 -173 -90 -190 -90 -8 0 -28 -7 -43 -15 -31 -16 -172
-45 -217 -45 -16 0 -30 -5 -32 -12 -3 -9 -96 -13 -356 -16 l-352 -5 0 -338 0
-339 -360 0 -360 0 0 1295 0 1295 613 0 c336 0 673 -5 747 -10z"/>
<path d="M3240 2786 l0 -396 215 0 c207 0 404 14 415 29 3 4 26 15 51 24 101
38 185 153 200 271 10 75 -5 228 -22 234 -5 2 -7 8 -3 13 3 5 0 9 -5 9 -6 0
-11 7 -11 15 0 23 -99 119 -140 135 -19 8 -37 17 -40 21 -15 19 -141 31 -387
36 l-273 6 0 -397z m567 293 c126 -30 188 -80 221 -178 29 -84 28 -154 -2
-236 -22 -61 -82 -135 -110 -135 -5 0 -17 -6 -25 -14 -27 -24 -157 -40 -368
-43 l-203 -4 0 316 0 315 201 0 c169 0 215 -3 286 -21z"/>
</g>
</svg>
